<!DOCTYPE svg PUBLIC "-//W3C//DTD SVG 1.1//EN" "http://www.w3.org/Graphics/SVG/1.1/DTD/svg11.dtd">
<!-- Uploaded to: SVG Repo, www.svgrepo.com, Transformed by: SVG Repo Mixer Tools -->
<svg fill="#34373F" height="800px" width="800px" version="1.1" id="Layer_1" xmlns="http://www.w3.org/2000/svg" xmlns:xlink="http://www.w3.org/1999/xlink" viewBox="0 0 512 512" xml:space="preserve" stroke="#34373F">
<g id="SVGRepo_bgCarrier" stroke-width="0"/>
<g id="SVGRepo_tracerCarrier" stroke-linecap="round" stroke-linejoin="round"/>
<g id="SVGRepo_iconCarrier"> <g> <g> <g> <path d="M360.318,192.281h-31.333c-5.939,0-10.756,4.815-10.756,10.756c0,5.94,4.816,10.756,10.756,10.756h31.333 c5.939,0,10.756-4.815,10.756-10.756C371.074,197.096,366.258,192.281,360.318,192.281z"/> <path d="M352.664,325.465h-1.076c-5.939,0-10.756,4.815-10.756,10.756s4.816,10.756,10.756,10.756h1.076 c5.939,0,10.756-4.815,10.756-10.756S358.604,325.465,352.664,325.465z"/> <path d="M508.243,402.238l-33.009-28.294c-1.95-1.67-4.432-2.589-7-2.589h-34.374V241.57c0-5.94-4.816-10.756-10.756-10.756 h-12.742V124.856c0-5.94-4.816-10.756-10.756-10.756H256.214c-5.939,0-10.756,4.815-10.756,10.756v105.958h-12.741 c-5.939,0-10.756,4.815-10.756,10.756v129.786h-36.424V226.87c0-4.109-2.34-7.858-6.031-9.663l-48.401-23.663 c-3.338-1.63-7.273-1.426-10.42,0.539c-3.148,1.965-5.061,5.413-5.061,9.124v43.561H92.292L64.89,99.952 c-0.538-2.884-2.23-5.422-4.683-7.027L16.647,64.422c-4.972-3.255-11.637-1.86-14.89,3.112c-3.251,4.97-1.86,11.637,3.112,14.889 l39.72,25.989l28.016,150.107v90.43c0,5.94,4.816,10.756,10.756,10.756h32.267c0,0,0,48.737,0,49.297 c0,22.241,18.093,40.334,40.334,40.334s40.334-18.093,40.334-40.334c0-5.735-1.211-11.189-3.377-16.134h185.427 c-2.331,4.893-3.64,10.363-3.64,16.134c0,20.758,16.888,37.645,37.645,37.645s37.645-16.888,37.645-37.645 c0-5.77-1.309-11.241-3.64-16.134h17.902l29.989,25.704c2.029,1.738,4.517,2.589,6.994,2.589c3.031,0,6.045-1.275,8.172-3.756 C513.276,412.894,512.754,406.104,508.243,402.238z M115.625,338.192H94.114V268.28h21.511V338.192z M137.137,220.438 l26.889,13.146v135.894c-2.607-0.531-5.305-0.812-8.067-0.812c-6.795,0-13.199,1.696-18.823,4.677V220.438z M155.959,427.823 c-10.378,0-18.823-8.444-18.823-18.823s8.444-18.823,18.823-18.823s18.823,8.444,18.823,18.823S166.338,427.823,155.959,427.823z M266.97,135.612h121.88v95.202H266.97V135.612z M344.044,252.326v22.049h-32.267v-22.049H344.044z M243.473,371.356v-24.38 h67.369c5.939,0,10.756-4.815,10.756-10.756s-4.816-10.756-10.756-10.756h-67.369v-73.139h46.792v32.805 c0,5.94,4.816,10.756,10.756,10.756h53.779c5.939,0,10.756-4.815,10.756-10.756v-32.805h46.793v119.031H243.473z M412.348,425.134c-8.896,0-16.134-7.238-16.134-16.134s7.238-16.134,16.134-16.134c8.896,0,16.134,7.238,16.134,16.134 S421.245,425.134,412.348,425.134z"/> </g> </g> </g> </g>
</svg>